<svg width="2236" height="527" viewBox="0 0 2236 527" fill="none" xmlns="http://www.w3.org/2000/svg">
<path d="M206.052 270.6L191.852 426.8H124.402L110.202 270.6H106.652L99.5521 512H0.152125L25.0021 15H135.052L156.352 228H159.902L181.202 15H291.252L316.102 512H216.702L209.602 270.6H206.052ZM433.141 107.3V220.9H482.841V313.2H433.141V419.7H504.141V512H340.841V15H504.141V107.3H433.141ZM514.458 107.3V15H706.158V107.3H656.458V512H564.158V107.3H514.458ZM809.136 512H709.736L759.436 15H890.786L940.486 512H841.086L837.536 419.7H812.686L809.136 512ZM826.886 164.1H823.336L816.236 327.4H833.986L826.886 164.1ZM930.308 107.3V15H1122.01V107.3H1072.31V512H980.008V107.3H930.308ZM1324.39 316.75L1363.44 512H1260.49L1246.29 348.7H1239.19V512H1146.89V15H1246.29C1261.43 15 1275.16 17.6033 1287.47 22.81C1300.25 27.5433 1311.13 34.6433 1320.13 44.11C1329.59 53.1033 1336.69 63.99 1341.43 76.77C1346.63 89.0767 1349.24 102.803 1349.24 117.95V245.75C1349.24 259.003 1347.82 270.127 1344.98 279.12C1342.61 287.64 1340.01 294.503 1337.17 299.71C1333.38 305.39 1329.12 309.887 1324.39 313.2V316.75ZM1246.29 107.3H1239.19V256.4H1246.29C1253.39 256.4 1256.94 252.85 1256.94 245.75V117.24C1256.94 110.613 1253.39 107.3 1246.29 107.3ZM1476.92 107.3V220.9H1526.62V313.2H1476.92V419.7H1547.92V512H1384.62V15H1547.92V107.3H1476.92ZM1689.59 512L1661.19 327.4H1657.64V512H1572.44V15H1657.64L1686.04 199.6H1689.59V15H1774.79V512H1689.59ZM1813.65 512V15H1913.05C1928.19 15 1941.92 17.6033 1954.23 22.81C1967.01 27.5433 1977.89 34.6433 1986.89 44.11C1996.35 53.1033 2003.45 63.99 2008.19 76.77C2013.39 89.0767 2016 102.803 2016 117.95V409.05C2016 424.197 2013.39 438.16 2008.19 450.94C2003.45 463.247 1996.35 474.133 1986.89 483.6C1977.89 492.593 1967.01 499.693 1954.23 504.9C1941.92 509.633 1928.19 512 1913.05 512H1813.65ZM1923.7 409.05V117.95C1923.7 110.85 1920.15 107.3 1913.05 107.3H1905.95V419.7H1913.05C1920.15 419.7 1923.7 416.15 1923.7 409.05ZM2037.19 423.25V334.5H2122.39V423.25C2122.39 430.35 2125.94 433.9 2133.04 433.9C2140.14 433.9 2143.69 430.35 2143.69 423.25C2143.69 401.95 2141.08 382.78 2135.88 365.74C2130.67 348.227 2124.04 331.66 2116 316.04C2107.95 300.42 2099.43 285.273 2090.44 270.6C2081.44 255.453 2072.92 239.597 2064.88 223.03C2056.83 206.463 2050.2 188.477 2045 169.07C2039.79 149.663 2037.19 127.89 2037.19 103.75C2037.19 88.6033 2039.55 74.8766 2044.29 62.57C2049.49 49.79 2056.59 38.9033 2065.59 29.91C2075.05 20.4433 2085.94 13.3433 2098.25 8.60996C2111.03 3.40331 2124.99 0.79998 2140.14 0.79998C2153.39 0.79998 2165.7 3.40331 2177.06 8.60996C2188.89 13.3433 2199.07 20.4433 2207.59 29.91C2216.58 38.9033 2223.44 49.79 2228.18 62.57C2233.38 74.8766 2235.99 88.6033 2235.99 103.75V171.2H2150.79V103.75C2150.79 96.65 2147.24 93.1 2140.14 93.1C2133.04 93.1 2129.49 96.65 2129.49 103.75C2129.49 125.05 2132.09 144.457 2137.3 161.97C2142.5 179.01 2149.13 195.34 2157.18 210.96C2165.22 226.58 2173.74 241.963 2182.74 257.11C2191.73 271.783 2200.25 287.403 2208.3 303.97C2216.34 320.537 2222.97 338.523 2228.18 357.93C2233.38 377.337 2235.99 399.11 2235.99 423.25C2235.99 438.397 2233.38 452.36 2228.18 465.14C2223.44 477.447 2216.34 488.333 2206.88 497.8C2197.88 506.793 2187 513.657 2174.22 518.39C2161.91 523.597 2148.18 526.2 2133.04 526.2C2119.78 526.2 2107.24 523.597 2095.41 518.39C2084.05 513.657 2073.87 506.793 2064.88 497.8C2056.36 488.333 2049.49 477.447 2044.29 465.14C2039.55 452.36 2037.19 438.397 2037.19 423.25Z" fill="white"/>
</svg>
